<svg width="64" height="64" viewBox="0 0 64 64" fill="none" xmlns="http://www.w3.org/2000/svg">
<circle cx="32" cy="32" r="32" fill="#FE4E4E"/>
<path d="M46.4 22.1098C46.4 19.714 44.286 17.6 41.8902 17.6H23.7098C21.314 17.6 19.2 19.714 19.2 22.1098V40.2901C19.2 42.686 21.314 44.8 23.7098 44.8H32.8705V34.5119H29.4881V30.0021H32.8705V28.1699C32.8705 25.0694 35.1254 22.3917 37.944 22.3917H41.6083V26.9015H37.944C37.5212 26.9015 37.0984 27.3243 37.0984 28.1699V30.0021H41.6083V34.5119H37.0984V44.8H41.8902C44.286 44.8 46.4 42.686 46.4 40.2901V22.1098Z" fill="white"/>
</svg>