<svg width="64" height="64" viewBox="0 0 64 64" fill="none" xmlns="http://www.w3.org/2000/svg">
<circle cx="32" cy="32" r="32" fill="#FE4E4E"/>
<path d="M42.5292 19.2H23.0708C20.8738 19.2 19.2 20.8738 19.2 23.0708V42.5292C19.2 44.7262 20.8738 46.4 23.0708 46.4H42.5292C44.7262 46.4 46.4 44.7262 46.4 42.5292V23.0708C46.4 20.8738 44.7262 19.2 42.5292 19.2ZM32.8 40.96C37.2985 40.96 40.96 37.4031 40.96 33.1138C40.96 32.3815 40.8554 31.5446 40.6462 30.9169H42.9477V42.0062C42.9477 42.5292 42.5292 43.0523 41.9015 43.0523H23.6985C23.1754 43.0523 22.6523 42.6338 22.6523 42.0062V30.8123H25.0585C24.8492 31.5446 24.7446 32.2769 24.7446 33.0092C24.64 37.4031 28.3015 40.96 32.8 40.96ZM32.8 37.8215C29.8708 37.8215 27.5692 35.52 27.5692 32.6954C27.5692 29.8708 29.8708 27.5692 32.8 27.5692C35.7292 27.5692 38.0308 29.8708 38.0308 32.6954C38.0308 35.6246 35.7292 37.8215 32.8 37.8215ZM42.8431 26.6277C42.8431 27.2554 42.32 27.7785 41.6923 27.7785H38.7631C38.1354 27.7785 37.6123 27.2554 37.6123 26.6277V23.8031C37.6123 23.1754 38.1354 22.6523 38.7631 22.6523H41.6923C42.32 22.6523 42.8431 23.1754 42.8431 23.8031V26.6277Z" fill="white"/>
</svg>