<svg width="64" height="64" viewBox="0 0 64 64" fill="none" xmlns="http://www.w3.org/2000/svg">
<circle cx="32" cy="32" r="32" fill="#FE4E4E"/>
<path d="M48.96 23.84C47.84 24.32 46.56 24.64 45.28 24.8C46.56 24 47.68 22.72 48.16 21.28C46.88 22.08 45.6 22.56 44 22.88C42.88 21.6 41.12 20.8 39.36 20.8C35.84 20.8 32.96 23.68 32.96 27.2C32.96 27.68 32.96 28.16 33.12 28.64C27.84 28.32 23.04 25.76 19.84 21.92C19.36 22.88 19.04 24 19.04 25.12C19.04 27.36 20.16 29.28 21.92 30.4C20.8 30.4 19.84 30.08 19.04 29.6C19.04 32.64 21.28 35.36 24.16 35.84C23.68 36 23.04 36 22.4 36C21.92 36 21.6 36 21.12 35.84C21.92 38.4 24.32 40.32 27.2 40.32C24.96 42.08 22.24 43.04 19.2 43.04C18.72 43.04 18.24 43.04 17.6 42.88C20.48 44.64 23.84 45.76 27.52 45.76C39.36 45.76 45.76 36 45.76 27.52V26.72C47.04 26.24 48.16 25.12 48.96 23.84Z" fill="white"/>
</svg>