<svg width="64" height="64" viewBox="0 0 64 64" fill="none" xmlns="http://www.w3.org/2000/svg">
<circle cx="32" cy="32" r="32" fill="#FE4E4E"/>
<path d="M47.6898 40.1844C47.6898 40.0516 47.557 40.0516 47.557 39.9187C47.0256 38.856 45.8301 37.5277 44.2361 36.0665C43.439 35.4023 43.0405 34.8709 42.7749 34.6053C42.3763 34.0739 42.3764 33.6754 42.5092 33.1441C42.642 32.7456 43.1734 32.0814 44.1032 30.8858C44.6346 30.2217 44.9002 29.8232 45.2987 29.4246C47.2913 26.7679 48.2211 25.041 47.9555 24.244L47.8227 24.1112C47.6898 23.9783 47.557 23.8455 47.2913 23.8455C47.0256 23.7127 46.6271 23.7127 46.2286 23.8455H41.1808C41.048 23.8455 41.048 23.8455 40.7823 23.8455C40.6495 23.8455 40.5167 23.8455 40.5167 23.8455H40.3838H40.251L40.1181 23.9783C39.9853 24.1112 39.9853 24.1112 39.9853 24.244C39.4539 25.7052 38.7898 26.9007 38.1256 28.2291C37.7271 28.8933 37.3286 29.5575 36.93 30.0888C36.5315 30.6202 36.2658 31.0187 36.0002 31.2844C35.7345 31.55 35.4688 31.6829 35.336 31.9485C35.2032 32.0814 34.9375 32.2142 34.9375 32.0814C34.8047 32.0814 34.6718 32.0814 34.6718 31.9485C34.539 31.8157 34.4062 31.6829 34.2733 31.55C34.1405 31.4172 34.1405 31.1515 34.0076 30.8858C34.0076 30.6202 34.0076 30.3545 34.0076 30.2217C34.0076 30.0888 34.0076 29.6903 34.0076 29.4246C34.0076 29.0261 34.0076 28.7605 34.0076 28.6276C34.0076 28.2291 34.0076 27.6978 34.0076 27.1664C34.0076 26.6351 34.0076 26.2366 34.0076 25.9709C34.0076 25.7052 34.0076 25.3067 34.0076 25.041C34.0076 24.6425 34.0076 24.3768 34.0076 24.244C34.0076 24.1112 33.8748 23.8455 33.8748 23.7127C33.742 23.5798 33.6091 23.447 33.4763 23.3142C33.3434 23.1813 33.0778 23.1813 32.9449 23.0485C32.2808 22.9156 31.4838 22.7828 30.5539 22.7828C28.4285 22.7828 26.9673 22.9157 26.436 23.1813C26.1703 23.3142 25.9046 23.447 25.7718 23.7127C25.5061 23.9783 25.5061 24.1112 25.6389 24.1112C26.3031 24.244 26.8345 24.5097 27.1001 24.9082L27.233 25.1739C27.3658 25.3067 27.3658 25.5724 27.4986 25.9709C27.6315 26.3694 27.6315 26.7679 27.6315 27.2993C27.6315 28.0963 27.6315 28.8933 27.6315 29.4246C27.6315 30.0888 27.4986 30.4873 27.4986 30.8858C27.4986 31.2843 27.3658 31.55 27.233 31.6829C27.1001 31.9485 27.1001 32.0814 26.9673 32.0814C26.9673 32.0814 26.9673 32.2142 26.8345 32.2142C26.7016 32.2142 26.5688 32.3471 26.3031 32.3471C26.1703 32.3471 25.9046 32.2142 25.7718 32.0814C25.5061 31.9485 25.2404 31.6829 25.1076 31.4172C24.8419 31.1515 24.5762 30.753 24.3106 30.2217C24.0449 29.6903 23.6464 29.159 23.3807 28.362L23.115 27.8306C22.9822 27.5649 22.7165 27.0336 22.4509 26.3694C22.1852 25.7052 21.9195 25.1739 21.6538 24.5097C21.521 24.244 21.3882 24.1112 21.2553 23.9783H21.1225C21.1225 23.9783 20.9896 23.8455 20.8568 23.8455C20.724 23.8455 20.5911 23.7127 20.4583 23.7127H15.6762C15.1448 23.7127 14.8792 23.8455 14.7463 23.9783L14.6135 24.1112C14.6135 24.1112 14.6135 24.244 14.6135 24.3769C14.6135 24.5097 14.6135 24.6425 14.7463 24.9082C15.4105 26.5022 16.2075 28.0963 17.0045 29.6903C17.8016 31.1515 18.5986 32.4799 19.1299 33.4097C19.7941 34.3396 20.3255 35.2695 20.9896 36.0665C21.6538 36.8635 22.0523 37.3948 22.1852 37.6605C22.4508 37.9262 22.5837 38.059 22.7165 38.1919L23.115 38.5904C23.3807 38.856 23.7792 39.2546 24.3106 39.6531C24.8419 40.0516 25.5061 40.4501 26.1703 40.8486C26.8345 41.2471 27.6315 41.5128 28.4285 41.7785C29.3584 42.0441 30.1554 42.177 30.9524 42.0441H32.9449C33.3435 42.0441 33.6091 41.9113 33.8748 41.6456L34.0076 41.5128C34.0076 41.3799 34.1405 41.3799 34.1405 41.2471C34.1405 41.1143 34.1405 40.9814 34.1405 40.7158C34.1405 40.1844 34.1405 39.7859 34.2733 39.3874C34.4062 38.9889 34.4062 38.7232 34.539 38.4575C34.6718 38.1919 34.8047 38.059 34.9375 37.9262C35.0703 37.7934 35.2032 37.6605 35.2032 37.6605H35.336C35.6017 37.5277 36.0002 37.6605 36.2659 37.9262C36.6644 38.1919 37.0629 38.5904 37.3285 38.9889C37.5942 39.3874 37.9928 39.7859 38.5241 40.3173C39.0555 40.8486 39.454 41.2471 39.7196 41.3799L40.1181 41.6456C40.3838 41.7785 40.6495 41.9113 41.048 42.0441C41.4465 42.177 41.7122 42.177 41.9778 42.177L46.4943 42.0441C46.8928 42.0441 47.2913 41.9113 47.557 41.7785C47.8227 41.6456 47.9555 41.5128 47.9555 41.2471C47.9555 41.1143 47.9555 40.8486 47.9555 40.7158C47.6898 40.4501 47.6898 40.3172 47.6898 40.1844Z" fill="white"/>
</svg>